<?xml version="1.0" encoding="UTF-8" standalone="no"?>
<svg width="37px" height="37px" viewBox="0 0 37 37" version="1.1" xmlns="http://www.w3.org/2000/svg" xmlns:xlink="http://www.w3.org/1999/xlink">
    <g id="Symbols" stroke="none" stroke-width="1" fill="none" fill-rule="evenodd">
        <g id="Nav_left" transform="translate(-14.000000, -23.000000)" fill="#FF3C6A">
            <g id="Group-13-Copy" transform="translate(11.000000, 23.000000)">
                <g id="Group-Copy" transform="translate(3.000000, 0.000000)">
                    <path d="M32.2,29.8 C32.4,30 32.6,29.9 32.7,29.8 C35.1,26.7 36.6,22.8 36.6,18.5 C36.6,14.1 35.1,10.1 32.5,7 C32.4,6.8 32.1,6.8 32,7 L30.6,8.4 C30.5,8.5 30.5,8.7 30.6,8.9 C32.3,11.1 33.5,13.7 33.8,16.6 C33.8,16.7 33.7,16.8 33.6,16.8 L30.6,16.8 C30.5,16.8 30.4,16.7 30.4,16.6 C29.4,10.4 23.8,5.7 17.2,6.2 C11.2,6.8 6.4,11.6 6,17.6 C5.8,20.5 6.6,23.2 8.1,25.5 C8.2,25.7 8.5,25.7 8.7,25.5 L10.1,24.1 C10.2,24 10.2,23.8 10.1,23.7 C9,22 8.4,19.8 8.7,17.6 C9.2,13 13.1,9.3 17.7,9.1 C23.2,8.8 27.8,13.2 27.8,18.7 C27.8,23.4 24.5,27.2 20.1,28.1 C20,28.1 19.8,28 19.8,27.9 L19.8,24.8 C19.8,24.7 19.9,24.6 19.9,24.6 C22.5,23.9 24.3,21.5 24.3,18.7 C24.3,17.7 24.1,16.7 23.6,15.9 C23.5,15.8 23.4,15.8 23.3,15.9 L21.6,17.6 C21.5,17.7 21.4,17.9 21.5,18.1 C21.6,18.7 21.6,19.3 21.4,19.9 C21,21 20.1,21.8 19,22.1 C16.4,22.7 14.1,20.4 14.8,17.9 C15.1,16.8 16,15.8 17.1,15.5 C17.7,15.3 18.4,15.3 19,15.5 C19.2,15.5 19.4,15.5 19.5,15.4 L21.2,13.7 C21.3,13.6 21.3,13.5 21.2,13.4 C20.1,12.8 18.7,12.5 17.3,12.7 C14.7,13.1 12.6,15.2 12.2,17.8 C11.7,21.2 13.9,24.1 17,24.8 C17.1,24.8 17.2,24.9 17.2,25 L17.2,28.1 C17.2,28.2 17.1,28.3 17,28.3 C15.5,28.1 14.2,27.6 13,26.8 C12.9,26.7 12.7,26.7 12.5,26.8 L11,27.9 C10.8,28.1 10.9,28.3 11,28.5 C13,30 15.5,30.8 18.2,30.8 C24.6,30.8 29.8,25.9 30.4,19.7 C30.4,19.6 30.5,19.5 30.6,19.5 L33.5,19.5 C33.6,19.5 33.7,19.6 33.7,19.7 C33.5,22.7 32.3,25.6 30.6,27.9 C30.5,28 30.5,28.2 30.6,28.4 L32.2,29.8 L32.2,29.8 Z" id="Shape"></path>
                    <path d="M18.3,2.7 C21.8,2.7 25.1,3.9 27.7,5.9 C27.8,6 28,6 28.1,5.9 L29.5,4.5 C29.7,4.3 29.6,4.1 29.5,4 C26.4,1.6 22.5,0 18.3,0 C9,0 1.3,7.1 0.1,15.8 C0.1,16 0.2,16.2 0.5,16.2 L2.5,16.2 C2.7,16.2 2.8,16.1 2.9,15.9 C3.9,8.5 10.4,2.7 18.3,2.7 L18.3,2.7 Z" id="Shape"></path>
                    <path d="M28.4,30.8 C28.3,30.7 28.1,30.7 27.9,30.8 C25.2,32.9 21.9,34 18.2,34 C10.1,34 3.5,27.9 2.6,19.9 C2.6,19.7 2.4,19.6 2.2,19.6 L0.2,19.6 C0.2,19.6 0,19.8 0,20 C0.9,29.4 8.7,36.7 18.3,36.7 C22.7,36.7 26.7,35.2 29.8,32.7 C30,32.6 30,32.3 29.8,32.2 L28.4,30.8 L28.4,30.8 Z" id="Shape"></path>
                </g>
            </g>
        </g>
    </g>
</svg>
